<svg xmlns="http://www.w3.org/2000/svg" width="64" height="64"><defs><clipPath id="a"><path d="M13 19h19v34.332H13Zm0 0"/></clipPath><clipPath id="b"><path d="M18 10.668h30v42.664H18Zm0 0"/></clipPath><clipPath id="c"><path d="M.89 24H18v25H.89Zm0 0"/></clipPath></defs><g clip-path="url(#a)"><path d="M31.367 53.133h-9.762a8.07 8.07 0 0 1-7.304-4.633c-.031-.074-.067-.145-.098-.219a8 8 0 0 1-.668-3.222c0-1.446.38-2.805 1.043-3.977l.57-.988c1.872-3.192 8.207-13.785 14.122-20.98-.989 1.32-25.16 34.019 2.097 34.019m0 0" style="stroke:none;fill-rule:nonzero;fill:#a384fc;fill-opacity:1"/></g><g clip-path="url(#b)"><path d="M47.246 53.133H31.371c-27.258 0-3.086-32.696-2.101-34.02l.011-.015q.022-.024.02-.024a1.512 1.512 0 0 1-.781-2.137 1.537 1.537 0 0 1 .676-.645 1 1 0 0 1 .077-.03l11.688-5.453c.207-.094.445-.141.644-.141.399 0 .79.148 1.083.445l3.445 3.453s.887.86.625 2.54c-.262 1.687-.75 4.507-2.606 7.039-1.851 2.523-3.957 5.144-4.336 8.66v.02a11.4 11.4 0 0 0-.117 2.038v.004c.059 2.125.563 3.164.926 4.242.703 2.051.512 3.828.516 3.86a23.3 23.3 0 0 0-9.797-2.145c-.602 0-1.203.02-1.793.067 10.648.12 13.328 6.207 13.945 8.355 0 .004.004.008.004.016q.076.339.16.718v.008s2.02.075 3.028 1.457l.07.094c.273.414.46.938.488 1.598Zm0 0" style="stroke:none;fill-rule:nonzero;fill:#7b4efa;fill-opacity:1"/></g><g clip-path="url(#c)"><path d="M16.738 27.148a4.06 4.06 0 0 1 .645 4.903l-4.586 7.941s-.008.008-.008.016a10.1 10.1 0 0 0-1.344 5.05c0 1.387.278 2.708.782 3.91L1.645 38.388a2.58 2.58 0 0 1-.41-3.11l3.804-6.586c2.441-4.234 8.242-5 11.7-1.543m0 0" style="stroke:none;fill-rule:nonzero;fill:#a384fc;fill-opacity:1"/></g><path d="m60.8 38.805-9.546 9.543a2.115 2.115 0 0 1-3 0l-2.79-2.79 8.579-8.578-8.578-8.578 2.789-2.789a2.115 2.115 0 0 1 3 0l9.547 9.543a2.58 2.58 0 0 1 0 3.645Zm0 0" style="stroke:none;fill-rule:nonzero;fill:#a384fc;fill-opacity:1"/></svg>