<svg xmlns="http://www.w3.org/2000/svg" width="32" height="32"><defs><clipPath id="a"><path d="M6 9h10v17.668H6Zm0 0"/></clipPath><clipPath id="b"><path d="M9 5.332h15v21.336H9Zm0 0"/></clipPath><clipPath id="c"><path d="M.445 12H9v13H.445Zm0 0"/></clipPath></defs><g clip-path="url(#a)"><path d="M15.684 26.566h-4.88a4.05 4.05 0 0 1-3.656-2.316l-.046-.11a4.04 4.04 0 0 1 .188-3.602l.284-.491c.938-1.598 4.106-6.895 7.059-10.488-.492.66-12.578 17.007 1.05 17.007m0 0" style="stroke:none;fill-rule:nonzero;fill:#a384fc;fill-opacity:1"/></g><g clip-path="url(#b)"><path d="M23.621 26.566h-7.937c-13.63 0-1.543-16.347-1.051-17.007q.007-.006.008-.012.01-.01.011-.008a.76.76 0 0 1-.394-1.07l.02-.031a.74.74 0 0 1 .32-.29c.011-.007.027-.011.039-.02l5.843-2.726a.8.8 0 0 1 .325-.07c.199 0 .394.078.539.227l1.722 1.726s.442.43.313 1.27c-.133.84-.375 2.25-1.3 3.515-.927 1.266-1.981 2.575-2.173 4.332v.008q-.058.415-.058.848-.001.085.004.172v.004c.027 1.062.277 1.582.46 2.12.352 1.024.254 1.915.258 1.93a11.6 11.6 0 0 0-5.797-1.039c5.325.059 6.668 3.102 6.973 4.176q.002.007.004.008.041.17.082.363v.004s1.008.035 1.512.727l.035.047c.137.207.23.468.246.8Zm0 0" style="stroke:none;fill-rule:nonzero;fill:#7b4efa;fill-opacity:1"/></g><g clip-path="url(#c)"><path d="M8.367 13.574c.653.649.785 1.656.324 2.453l-2.293 3.97q-.001 0-.003.007a5.06 5.06 0 0 0-.672 2.523c0 .696.136 1.356.39 1.957L.82 19.195a1.294 1.294 0 0 1-.203-1.558l1.903-3.293c1.222-2.117 4.12-2.5 5.847-.77m0 0" style="stroke:none;fill-rule:nonzero;fill:#a384fc;fill-opacity:1"/></g><path d="m30.398 19.402-4.77 4.774a1.066 1.066 0 0 1-1.503 0L22.73 22.78l4.293-4.293L22.73 14.2l1.395-1.394a1.066 1.066 0 0 1 1.504 0l4.77 4.773a1.29 1.29 0 0 1 0 1.824m0 0" style="stroke:none;fill-rule:nonzero;fill:#a384fc;fill-opacity:1"/></svg>