<svg xmlns="http://www.w3.org/2000/svg" width="96" height="96"><defs><clipPath id="a"><path d="M1.332 37H27v37H1.332Zm0 0"/></clipPath></defs><path d="M47.055 79.695H32.41a12.11 12.11 0 0 1-10.96-6.949q-.073-.159-.145-.324A12 12 0 0 1 20.3 67.59c0-2.172.57-4.207 1.566-5.969l.856-1.48c2.808-4.79 12.312-20.68 21.18-31.47-1.481 1.981-37.739 51.024 3.152 51.024m0 0" style="stroke:none;fill-rule:nonzero;fill:#a384fc;fill-opacity:1"/><path d="M70.867 79.695H47.055c-40.887 0-4.63-49.043-3.153-51.023q.012-.017.024-.027c.015-.024.027-.032.027-.032a2.277 2.277 0 0 1-1.176-3.207c.016-.035.035-.062.055-.093.227-.375.563-.68.961-.872q.059-.029.117-.05l17.535-8.18c.309-.14.664-.211.965-.211.598 0 1.184.227 1.625.672l5.16 5.18s1.332 1.289.938 3.808c-.39 2.528-1.121 6.758-3.903 10.555-2.777 3.789-5.937 7.719-6.507 12.992v.027a17.5 17.5 0 0 0-.172 3.059v.004c.09 3.191.84 4.75 1.39 6.363 1.047 3.078.762 5.746.774 5.793a34.9 34.9 0 0 0-14.7-3.219c-.906 0-1.8.032-2.69.102 15.972.18 19.995 9.309 20.917 12.531q.002.012.004.024.123.509.246 1.082v.011s3.024.11 4.54 2.184c.03.047.07.094.1.14.415.622.696 1.407.74 2.399Zm0 0" style="stroke:none;fill-rule:nonzero;fill:#7b4efa;fill-opacity:1"/><g clip-path="url(#a)"><path d="M25.105 40.723a6.094 6.094 0 0 1 .97 7.355l-6.88 11.91s-.011.016-.011.024a15.16 15.16 0 0 0-2.016 7.574c0 2.078.414 4.059 1.172 5.867L2.465 57.582a3.87 3.87 0 0 1-.613-4.668l5.703-9.879c3.668-6.351 12.363-7.5 17.55-2.312m0 0" style="stroke:none;fill-rule:nonzero;fill:#a384fc;fill-opacity:1"/></g><path d="M91.2 58.207 76.882 72.523a3.19 3.19 0 0 1-4.504 0l-4.184-4.183 12.871-12.871-12.87-12.867 4.183-4.184a3.19 3.19 0 0 1 4.504 0l14.316 14.316a3.864 3.864 0 0 1 0 5.47Zm0 0" style="stroke:none;fill-rule:nonzero;fill:#a384fc;fill-opacity:1"/></svg>