<svg xmlns="http://www.w3.org/2000/svg" width="128" height="128"><defs><clipPath id="a"><path d="M1.777 49.332H36V98H1.777Zm0 0"/></clipPath></defs><path d="M62.738 106.262H43.215c-6.461 0-12.031-3.79-14.617-9.266-.063-.14-.13-.289-.192-.433a16 16 0 0 1-1.34-6.442c0-2.898.762-5.61 2.09-7.96l1.14-1.974c3.747-6.386 16.419-27.574 28.24-41.957-1.974 2.641-50.317 68.032 4.202 68.032m0 0" style="stroke:none;fill-rule:nonzero;fill:#a384fc;fill-opacity:1"/><path d="M94.488 106.262h-31.75c-54.515 0-6.172-65.39-4.203-68.032q.02-.022.031-.039c.024-.03.04-.039.04-.039a3.038 3.038 0 0 1-1.57-4.277c.023-.047.046-.082.073-.125.301-.5.75-.906 1.282-1.16.05-.028.105-.047.156-.07l23.379-10.907a3.2 3.2 0 0 1 1.289-.281c.797 0 1.578.305 2.164.898l6.883 6.907s1.773 1.718 1.25 5.078c-.524 3.367-1.496 9.008-5.203 14.07-3.704 5.055-7.918 10.293-8.68 17.324v.036a23.6 23.6 0 0 0-.227 4.078v.007c.118 4.254 1.118 6.332 1.852 8.485 1.398 4.101 1.016 7.66 1.031 7.722-5.96-2.761-12.601-4.292-19.597-4.292q-1.81-.002-3.59.136c21.297.239 26.664 12.41 27.89 16.707 0 .012.008.024.008.032q.165.678.328 1.445v.015s4.031.145 6.051 2.91c.043.063.094.126.137.188.55.828.925 1.875.984 3.2Zm0 0" style="stroke:none;fill-rule:nonzero;fill:#7b4efa;fill-opacity:1"/><g clip-path="url(#a)"><path d="M33.473 54.297a8.12 8.12 0 0 1 1.293 9.808l-9.172 15.88s-.016.019-.016.03a20.2 20.2 0 0 0-2.687 10.098c0 2.774.55 5.414 1.562 7.825L3.285 76.778a5.166 5.166 0 0 1-.816-6.227l7.605-13.172c4.89-8.469 16.485-10 23.399-3.082m0 0" style="stroke:none;fill-rule:nonzero;fill:#a384fc;fill-opacity:1"/></g><path d="M121.598 77.61 102.512 96.7a4.253 4.253 0 0 1-6.008 0l-5.578-5.579 17.164-17.164-17.164-17.156 5.578-5.578a4.253 4.253 0 0 1 6.008 0l19.086 19.09a5.154 5.154 0 0 1 0 7.292Zm0 0" style="stroke:none;fill-rule:nonzero;fill:#a384fc;fill-opacity:1"/></svg>