<svg width="280" height="128" viewBox="0 0 280 128" fill="none" xmlns="http://www.w3.org/2000/svg">
<path d="M0 6C0 2.68629 2.68629 0 6 0H274C277.314 0 280 2.68629 280 6V122C280 125.314 277.314 128 274 128H6C2.6863 128 0 125.314 0 122V6Z" fill="#F2F3F5"/>
<path d="M190.955 112H89.1134C88.2692 112 87.8048 111.019 88.3401 110.366L109.213 84.9145C109.578 84.4691 110.243 84.4236 110.666 84.8152L127.142 100.084C127.576 100.487 128.264 100.425 128.621 99.9515L154.873 65.0448C155.269 64.5183 156.057 64.5119 156.462 65.0319L191.744 110.386C192.255 111.043 191.787 112 190.955 112Z" fill="#E5E6EB"/>
</svg>
