<svg width="44" height="44" viewBox="0 0 44 44" fill="none" xmlns="http://www.w3.org/2000/svg">
<g clip-path="url(#clip0_3507_29867)">
<path d="M40.3337 36.2593V7.74074C40.3337 5.5 38.5003 3.66667 36.2596 3.66667H7.74107C5.50033 3.66667 3.66699 5.5 3.66699 7.74074V36.2593C3.66699 38.5 5.50033 40.3333 7.74107 40.3333H36.2596C38.5003 40.3333 40.3337 38.5 40.3337 36.2593ZM14.8707 27.5L19.9633 33.6315L27.0929 24.4444L36.2596 36.6667H7.74107L14.8707 27.5Z" fill="#7B4EFA" fill-opacity="0.08"/>
<path d="M21.4447 22.2101C21.9043 21.3756 22.7875 20.8833 23.3008 20.1448C23.8439 19.3703 23.5395 17.9234 21.9997 17.9234C20.9912 17.9234 20.4958 18.6919 20.2869 19.3283L18.7412 18.6738C19.1649 17.395 20.3168 16.2963 21.9938 16.2963C23.3963 16.2963 24.3571 16.9387 24.8465 17.7432C25.2642 18.4337 25.5089 19.7245 24.8644 20.6851C24.1482 21.7478 23.4619 22.072 23.0919 22.7565C22.9427 23.0327 22.883 23.2128 22.883 24.1014H21.1583C21.1523 23.6331 21.0807 22.8706 21.4447 22.2101ZM23.1933 26.5029C23.1933 27.1634 22.6562 27.7037 21.9997 27.7037C21.3433 27.7037 20.8061 27.1634 20.8061 26.5029C20.8061 25.8425 21.3433 25.3021 21.9997 25.3021C22.6562 25.3021 23.1933 25.8425 23.1933 26.5029Z" fill="#7B4EFA"/>
</g>
<defs>
<clipPath id="clip0_3507_29867">
<rect width="44" height="44" fill="white"/>
</clipPath>
</defs>
</svg>
